# xmcd CD database file
#
# Track frame offsets:
#	150
#	19354
#	39376
#	59511
#	81016
#	97921
#	117844
#	132323
#	157142
#	176004
#
# Disc length: 2676 seconds
#
# Revision: 0
# Processed by: cddbd v1.5.2PL0 Copyright (c) Steve Scherf et al.
# Submitted via: Feurio! 1.68 - http://www.feurio.com
#
DISCID=810a720a
DTITLE=Harry Ahamer - steh auf
DYEAR=2009
DGENRE=Austria-Rock
TTITLE0=blau
TTITLE1=jeda soi so duan wia wü
TTITLE2=steh auf
TTITLE3=iagendwonn iagendwie
TTITLE4=xeng
TTITLE5=i valieb me vü zu leicht
TTITLE6=im ö
TTITLE7=koid
TTITLE8=ka zeid
TTITLE9=ruaf jetzt o
EXTD=
EXTT0=
EXTT1=
EXTT2=
EXTT3=
EXTT4=
EXTT5=
EXTT6=
EXTT7=
EXTT8=
EXTT9=
PLAYORDER=
